<svg id="Capa_1" enable-background="new 0 0 512 512" height="512" viewBox="0 0 512 512" width="512" xmlns="http://www.w3.org/2000/svg"><g><g><path d="m115.73 164.605h82.207c4.142 0 7.5-3.358 7.5-7.5s-3.358-7.5-7.5-7.5h-79.883l17.99-54.27c.182-.544.341-.958.473-1.27h157.878c.129.309.282.718.457 1.255l18.022 54.285h-79.357c-4.142 0-7.5 3.358-7.5 7.5s3.358 7.5 7.5 7.5h81.683c4.35 0 8.813-2.296 11.372-5.849 2.244-3.116 2.858-6.915 1.691-10.406l-19.161-57.715c-3.113-9.563-8.83-11.57-13.077-11.57h-161.121c-6.129 0-10.532 3.874-13.093 11.532l-19.139 57.738c-1.172 3.506-.558 7.305 1.686 10.421 2.559 3.553 7.022 5.849 11.372 5.849z"/><path d="m291.935 208.034v17.344c0 9.262 7.548 16.797 16.825 16.797h45.78c9.277 0 16.825-7.535 16.825-16.797v-17.344c0-9.262-7.548-16.797-16.825-16.797h-45.78c-9.277.001-16.825 7.536-16.825 16.797zm64.431 0v17.344c0 .974-.836 1.797-1.825 1.797h-45.78c-.989 0-1.825-.823-1.825-1.797v-17.344c0-.974.836-1.797 1.825-1.797h45.78c.989.001 1.825.823 1.825 1.797z"/><path d="m263.358 207.826h-95.786c-4.142 0-7.5 3.358-7.5 7.5s3.358 7.5 7.5 7.5h95.786c4.143 0 7.5-3.358 7.5-7.5s-3.358-7.5-7.5-7.5z"/><path d="m246.398 237.635h-61.866c-4.142 0-7.5 3.358-7.5 7.5s3.358 7.5 7.5 7.5h61.866c4.142 0 7.5-3.358 7.5-7.5s-3.358-7.5-7.5-7.5z"/><path d="m59.564 208.034v17.344c0 9.262 7.547 16.797 16.825 16.797h45.781c9.277 0 16.825-7.535 16.825-16.797v-17.344c0-9.262-7.548-16.797-16.825-16.797h-45.781c-9.277.001-16.825 7.536-16.825 16.797zm15 0c0-.974.835-1.797 1.825-1.797h45.781c.989 0 1.825.823 1.825 1.797v17.344c0 .974-.836 1.797-1.825 1.797h-45.781c-.989 0-1.825-.823-1.825-1.797z"/><path d="m495.845 323.921h-4.322c-1.707-5.333-3.865-10.522-6.455-15.517l3.046-3.049c3.043-3.034 4.719-7.082 4.719-11.398 0-4.317-1.676-8.365-4.719-11.398l-20.428-20.366c-6.286-6.266-16.515-6.264-22.789-.01l-3.092 3.07c-5.02-2.589-10.235-4.746-15.597-6.451v-4.283c0-7.875-5.686-14.439-13.171-15.842 0 0 .023-14.081.046-15.982.177-14.91.328-27.79-11.301-42.507 16.35-2.197 29.002-16.201 29.002-33.106 0-18.409-15.025-33.386-33.493-33.386h-38.309l-17.027-49.351c-3.854-11.075-17.972-22.845-36.546-22.845h-179.917c-18.611 0-32.708 11.782-36.522 22.863l-17.022 49.333h-38.338c-18.453 0-33.465 14.977-33.465 33.386 0 16.913 12.652 30.922 29 33.109-11.645 14.738-11.498 27.642-11.326 42.581.021 1.877.044 3.817.044 5.845l.077 48.149c-10.379 3.204-17.94 12.87-17.94 24.266v7.496c0 11.386 7.566 21.043 17.951 24.242v29.767c0 11.873 9.679 21.532 21.575 21.532h37.65c11.896 0 21.575-9.659 21.575-21.532v-28.642h67.363c4.142 0 7.5-3.358 7.5-7.5s-3.358-7.5-7.5-7.5h-74.863-65.8c-5.763 0-10.451-4.651-10.451-10.367v-7.496c0-5.732 4.688-10.396 10.457-10.396h.006l273.314-.221c-.257 1.15-.402 2.334-.402 3.543 0 4.329 1.691 8.384 4.729 11.387l3.057 3.06c-1.767 3.409-3.318 6.915-4.677 10.49h-99.788c-4.142 0-7.5 3.358-7.5 7.5s3.358 7.5 7.5 7.5h78.762c-.788 1.898-1.229 3.975-1.229 6.155v28.791c0 8.894 7.247 16.129 16.155 16.129h4.321c1.709 5.349 3.866 10.543 6.45 15.534l-3.019 3.009c-3.071 3.036-4.763 7.091-4.763 11.419 0 4.329 1.691 8.385 4.74 11.399l20.405 20.342c3.038 3.056 7.095 4.739 11.422 4.74h.001c4.327 0 8.385-1.683 11.4-4.717l3.063-3.054c5.016 2.584 10.237 4.741 15.613 6.448v4.282c0 8.893 7.247 16.128 16.155 16.128h28.879c8.907 0 16.154-7.235 16.154-16.128v-4.283c5.362-1.705 10.578-3.863 15.597-6.452l3.058 3.037c3.04 3.056 7.097 4.739 11.424 4.739 4.326 0 8.383-1.683 11.399-4.716l20.428-20.366c3.043-3.034 4.719-7.082 4.719-11.399 0-4.316-1.676-8.364-4.719-11.396l-3.041-3.032c2.585-4.991 4.742-10.187 6.451-15.534h4.321c8.908 0 16.155-7.235 16.155-16.129v-28.791c.003-8.894-7.244-16.129-16.152-16.129zm-412.094 9.974v28.642c0 3.541-3.011 6.532-6.575 6.532h-37.65c-3.564 0-6.575-2.991-6.575-6.532v-28.642zm313.54-205.199c10.197 0 18.493 8.248 18.493 18.386 0 10.154-8.296 18.415-18.493 18.415h-9.915l-16.189-16.426-7.03-20.375zm-294.14-59.446c1.53-4.446 9.654-12.75 22.341-12.75h179.917c12.674 0 20.829 8.319 22.372 12.755l29.781 86.315c.365 1.058.963 2.021 1.748 2.818l19.59 19.876c.019.019.038.039.057.058l11.269 11.434c8.123 10.426 8.023 18.866 7.858 32.76-.023 1.958-.047 15.873-.047 15.873h-16.862c-8.908 0-16.155 7.235-16.155 16.129v4.282c-5.376 1.707-10.597 3.863-15.613 6.448l-3.063-3.055c-6.287-6.267-16.515-6.266-22.8 0l-13.253 13.212-277.352.224-.075-47.026c0-2.075-.023-4.072-.045-6.005-.16-13.93-.257-22.392 7.886-32.842l11.274-11.439c.015-.015.029-.03.044-.045l19.597-19.884c.786-.797 1.383-1.76 1.748-2.818zm-88.005 77.832c0-10.138 8.283-18.386 18.465-18.386h33.162l-7.03 20.375-16.189 16.426h-9.944c-10.181 0-18.464-8.261-18.464-18.415zm481.854 221.759c0 .591-.551 1.129-1.155 1.129h-9.966c-3.426 0-6.417 2.322-7.266 5.641-2.01 7.856-5.137 15.383-9.293 22.371-1.756 2.952-1.281 6.72 1.151 9.145l7.052 7.032c.255.254.309.561.309.774s-.054.521-.309.775l-20.451 20.389c-.26.261-.571.316-.786.316-.216 0-.527-.055-.821-.35l-7.081-7.031c-2.422-2.406-6.163-2.87-9.102-1.134-7.025 4.154-14.569 7.272-22.422 9.269-3.325.845-5.652 3.838-5.652 7.269v9.936c0 .612-.528 1.128-1.154 1.128h-28.879c-.626 0-1.155-.517-1.155-1.128v-9.936c0-3.43-2.327-6.423-5.651-7.269-7.888-2.006-15.441-5.124-22.451-9.269-1.188-.702-2.506-1.044-3.815-1.044-1.936 0-3.853.749-5.297 2.189l-7.075 7.053c-.26.261-.571.316-.787.316s-.526-.055-.81-.339l-20.451-20.388c-.254-.251-.308-.548-.308-.753 0-.204.054-.501.33-.774l7.053-7.031c2.433-2.425 2.907-6.193 1.15-9.146-4.155-6.985-7.281-14.511-9.292-22.371-.849-3.319-3.84-5.641-7.266-5.641h-9.966c-.626 0-1.155-.517-1.155-1.129v-28.79c0-.612.529-1.128 1.155-1.128h9.966c3.426 0 6.417-2.322 7.266-5.641 2.002-7.826 5.129-15.342 9.292-22.342 1.754-2.948 1.284-6.709-1.14-9.135l-7.086-7.092c-.254-.251-.308-.548-.308-.753s.054-.502.33-.775l4.993-4.978c.002-.002.003-.003.005-.005l15.432-15.384c.422-.422 1.195-.422 1.619 0l7.052 7.031c2.422 2.415 6.171 2.885 9.111 1.145 7.012-4.145 14.565-7.263 22.452-9.269 3.324-.845 5.651-3.838 5.651-7.269v-9.936c0-.591.551-1.129 1.155-1.129h28.879c.604 0 1.154.538 1.154 1.129v9.936c0 3.43 2.327 6.423 5.652 7.269 7.853 1.997 15.396 5.115 22.423 9.269 2.936 1.737 6.679 1.271 9.101-1.134l7.092-7.041c.424-.422 1.196-.424 1.62 0l20.428 20.366c.255.254.309.562.309.775s-.054.521-.32.786l-7.052 7.06c-2.423 2.426-2.893 6.187-1.14 9.134 4.165 7.002 7.291 14.52 9.293 22.342.849 3.319 3.84 5.641 7.266 5.641h9.966c.604 0 1.155.538 1.155 1.128z"/><path d="m395.6 291.963c-12.881 0-25.258 3.882-35.791 11.226-3.398 2.369-4.232 7.044-1.863 10.441 2.369 3.398 7.043 4.233 10.441 1.863 8.005-5.581 17.415-8.53 27.213-8.53 26.282 0 47.664 21.307 47.664 47.497 0 26.174-21.382 47.468-47.664 47.468-26.266 0-47.635-21.294-47.635-47.468 0-5.411.896-10.689 2.661-15.69 1.379-3.906-.669-8.19-4.575-9.569-3.906-1.378-8.189.669-9.569 4.575-2.333 6.608-3.517 13.568-3.517 20.684 0 34.445 28.098 62.468 62.635 62.468 34.553 0 62.664-28.023 62.664-62.468 0-34.461-28.111-62.497-62.664-62.497z"/></g></g></svg>